<svg xmlns:xlink="http://www.w3.org/1999/xlink" xmlns="http://www.w3.org/2000/svg" viewBox="0 0 198.90205887955563 36" preserveAspectRatio="xMidYMid meet" class="css-x79sxs" id="cdfcdfaf" width="198.90205887955563"  height="36" ><defs id="SvgjsDefs1001"></defs><g id="SvgjsG1007" featurekey="nameLeftFeature-0" transform="matrix(2.4861879239010025,0,0,2.4861879239010025,-6.2154698097525065,-13.077344306735393)" fill="#111111"><path d="M2.5 19.5 l0 -14 l4.5 0 c2.7 0 4.5 1.8 4.5 4.5 c0 1.26 -0.4 2.3 -1.04 3.06 l-0.76 -0.7 c0.5 -0.6 0.8 -1.4 0.8 -2.36 c0 -2.1 -1.4 -3.5 -3.5 -3.5 l-3.5 0 l0 5.5 l3.5 0 c1.2 0 2 -0.8 2 -2 s-0.8 -2 -2 -2 l-1.6 0 l-1.06 -1 l2.66 0 c1.8 0 3 1.2 3 3 s-1.2 3 -3 3 l-3.5 0 l0 6.5 l-1 0 z M4 7.359999999999999 l1 0.98 l0 3.16 l-1 0 l0 -4.14 z M7 13.5 c0.94 0 1.74 -0.3 2.34 -0.8 l0.76 0.74 c-0.8 0.66 -1.86 1.06 -3.1 1.06 l-1.6 0 l-1.06 -1 l2.66 0 z M4 19.5 l0 -5.64 l1 1 l0 4.64 l-1 0 z M16.5 19.5 l-1 0 l0 -14 l4.5 0 c2.7 0 4.5 1.8 4.5 4.5 c0 1.2 -0.36 2.24 -1 3.06 l-0.76 -0.76 c0.46 -0.6 0.76 -1.4 0.76 -2.3 c0 -2.1 -1.4 -3.5 -3.5 -3.5 l-3.5 0 l0 5.5 l3.5 0 c1.2 0 2 -0.8 2 -2 s-0.8 -2 -2 -2 l-1.64 0 l-1.06 -1 l2.7 0 c1.8 0 3 1.2 3 3 c0 1.6 -0.96 2.76 -2.46 2.96 l2.2 6.54 l-1.08 0 l-2.16 -6.5 l-3 0 l0 6.5 z M17 7.4 l1 1 l0 3.1 l-1 0 l0 -4.1 z M21.2 13.36 c0.46 -0.16 0.84 -0.36 1.2 -0.66 l0.7 0.7 c-0.2 0.2 -0.4 0.34 -0.66 0.5 l1.86 5.6 l-1.06 0 z M18.4 14.5 l-1.06 -1 l1.8 0 l0.36 1 l-1.1 0 z M17 19.5 l0 -5.64 l1 1 l0 4.64 l-1 0 z M37 14.76 c0 1.38 -0.4 2.58 -1.1 3.48 l-0.76 -0.68 c0.56 -0.7 0.86 -1.66 0.86 -2.8 l0 -4.5 c0 -2.4 -1.4 -4.02 -3.5 -4.02 s-3.5 1.62 -3.5 4.02 l0 4.5 c0 2.4 1.4 4 3.5 4 c0.9 0 1.7 -0.3 2.3 -0.86 l0.7 0.7 c-0.76 0.76 -1.8 1.14 -3 1.14 c-2.7 0 -4.5 -1.98 -4.5 -4.98 l0 -4.5 c0 -3 1.8 -5 4.5 -5 s4.5 2 4.5 5 l0 4.5 z M30.84 8.7 c-0.2 0.4 -0.34 0.96 -0.34 1.56 l0 4.5 c0 1.5 0.8 2.5 2 2.5 s2 -1 2 -2.5 l0 -4.5 c0 -1.5 -0.8 -2.52 -2 -2.52 c-0.54 0 -1 0.22 -1.3 0.56 l-0.74 -0.7 c0.48 -0.54 1.2 -0.84 2.04 -0.84 c1.8 0 3 1.4 3 3.5 l0 4.5 c0 2.1 -1.2 3.48 -3 3.48 s-3 -1.38 -3 -3.48 l0 -4.5 c0 -0.9 0.2 -1.7 0.6 -2.3 z" fill="#111111"></path></g><g id="SvgjsG1008" featurekey="nameRightFeature-0" transform="matrix(2.319587560449554,0,0,2.319587560449554,93.36082487910089,-10.994844505619428)" fill="#111111"><path d="M5.5 5 l0 15 l-3.5 0 l0 -15 l3.5 0 z M2.5 19.5 l1 0 l0 -14 l-1 0 l0 14 z M4 19.5 l1 0 l0 -14 l-1 0 l0 14 z M19.240000000000002 14.76 c0 3.3 -2 5.5 -5 5.5 s-4.98 -2.2 -4.98 -5.5 l0 -9.76 l3.48 0 l0 9.76 c0 1.2 0.6 1.98 1.5 1.98 s1.5 -0.78 1.5 -1.98 l0 -9.76 l3.5 0 l0 9.76 z M9.74 14.76 c0 3 1.8 4.98 4.5 4.98 c1.2 0 2.26 -0.38 3 -1.08 l-0.74 -0.76 c-0.56 0.56 -1.36 0.86 -2.26 0.86 c-2.1 0 -3.48 -1.6 -3.48 -4 l0 -9.26 l-1.02 0 l0 9.26 z M11.24 14.76 c0 2.1 1.2 3.48 3 3.48 s3 -1.38 3 -3.48 l0 -9.26 l-1 0 l0 9.26 c0 1.5 -0.8 2.5 -2 2.5 s-1.98 -1 -1.98 -2.5 l0 -9.26 l-1.02 0 l0 9.26 z M17.740000000000002 14.76 c0 1.14 -0.3 2.1 -0.9 2.8 l0.76 0.68 c0.74 -0.84 1.14 -2.04 1.14 -3.48 l0 -9.26 l-1 0 l0 9.26 z M33 10 c0 1.8 -0.76 3.26 -1.96 4.1 l1.96 5.9 l-3.64 0 l-1.72 -5 l-1.14 0 l0 5 l-3.5 0 l0 -15 l5 0 c3 0 5 2 5 5 z M28.54 12.96 c1.5 -0.2 2.46 -1.36 2.46 -2.96 c0 -1.8 -1.2 -3 -3 -3 l-2.7 0 l1.06 1 l1.64 0 c1.2 0 2 0.8 2 2 s-0.8 2 -2 2 l-3.5 0 l0 -5.5 l3.5 0 c2.1 0 3.5 1.4 3.5 3.5 c0 0.9 -0.3 1.7 -0.76 2.3 l0.76 0.76 c0.64 -0.82 1 -1.86 1 -3.06 c0 -2.7 -1.8 -4.5 -4.5 -4.5 l-4.5 0 l0 14 l1 0 l0 -6.5 l3 0 l2.16 6.5 l1.08 0 z M25 11.5 l1 0 l0 -3.1 l-1 -1 l0 4.1 z M28 11.5 c0.9 0 1.5 -0.6 1.5 -1.5 s-0.6 -1.5 -1.5 -1.5 l-1.5 0 l0 3 l1.5 0 z M30.439999999999998 13.9 c0.26 -0.16 0.46 -0.3 0.66 -0.5 l-0.7 -0.7 c-0.36 0.3 -0.74 0.5 -1.2 0.66 l2.04 6.14 l1.06 0 z M27.5 14.5 l-0.36 -1 l-1.8 0 l1.06 1 l1.1 0 z M26 19.5 l0 -4.64 l-1 -1 l0 5.64 l1 0 z M40.5 4.74 c3 0 5 2.22 5 5.52 l0 4.5 c0 3.3 -2 5.5 -5 5.5 s-5 -2.2 -5 -5.5 l0 -4.5 c0 -3.3 2 -5.52 5 -5.52 z M45 10.26 c0 -3 -1.8 -5 -4.5 -5 s-4.5 2 -4.5 5 l0 4.5 c0 3 1.8 4.98 4.5 4.98 c1.2 0 2.24 -0.38 3 -1.14 l-0.7 -0.7 c-0.6 0.56 -1.4 0.86 -2.3 0.86 c-2.1 0 -3.5 -1.6 -3.5 -4 l0 -4.5 c0 -2.4 1.4 -4.02 3.5 -4.02 s3.5 1.62 3.5 4.02 l0 4.5 c0 1.14 -0.3 2.1 -0.86 2.8 l0.76 0.68 c0.7 -0.9 1.1 -2.1 1.1 -3.48 l0 -4.5 z M38.1 7.960000000000001 c-0.4 0.6 -0.6 1.4 -0.6 2.3 l0 4.5 c0 2.1 1.2 3.48 3 3.48 s3 -1.38 3 -3.48 l0 -4.5 c0 -2.1 -1.2 -3.5 -3 -3.5 c-0.84 0 -1.56 0.3 -2.04 0.84 l0.74 0.7 c0.3 -0.34 0.76 -0.56 1.3 -0.56 c1.2 0 2 1.02 2 2.52 l0 4.5 c0 1.5 -0.8 2.5 -2 2.5 s-2 -1 -2 -2.5 l0 -4.5 c0 -0.6 0.14 -1.16 0.34 -1.56 z M39 14.76 c0 1.2 0.6 1.98 1.5 1.98 s1.5 -0.78 1.5 -1.98 l0 -4.5 c0 -1.2 -0.6 -2 -1.5 -2 s-1.5 0.8 -1.5 2 l0 4.5 z" fill="#111111"></path></g></svg>