<svg xmlns:xlink="http://www.w3.org/1999/xlink" xmlns="http://www.w3.org/2000/svg" viewBox="0 0 374.8947368421052 83.57978784050992" preserveAspectRatio="xMidYMid meet" class="css-x79sxs" id="fecdagae" width="374.8947368421052"  height="83.57978784050992" ><defs id="SvgjsDefs1001"></defs><g id="SvgjsG1007" featurekey="nRdZyp-0" transform="matrix(2.689960061464865,0,0,2.689960061464865,-23.15517054480598,-21.726747674678194)" fill="#111111"><g xmlns="http://www.w3.org/2000/svg" fill="#111111"><path fill="#111111" d="M42.137,13.071c-1.019,0.695-3.015,2.661-5.238,5.19l0.223,0.19C38.628,16.671,40.657,14.376,42.137,13.071   z"></path><path fill="#111111" d="M30.868,26.793c0.14,0.119,0.591-0.146,1.25-0.688l-0.763-0.652C30.919,26.188,30.729,26.673,30.868,26.793   z"></path><path fill="#111111" d="M41.764,15.039c0.257-0.382,1.436-2.151,0.981-2.227c-1.271,1.309-3.644,3.746-5.51,5.737l1.121,0.958   c1.307-1.571,2.417-3.025,3.21-4.176c0.44,0.376,0.429,0.782,0.178,1.074l-2.116,2.476c-0.142,0.165-0.124,0.42,0.045,0.564   C41.815,16.941,43.03,16.096,41.764,15.039z"></path><path fill="#111111" d="M29.541,27.466c-0.467,0.055-0.661-0.078-0.565,0.771c-0.193-0.145-0.418-0.27-0.682-0.29   c-0.141-0.01-0.28,0.085-0.315,0.229c-0.207,0.852,0.397,1.09,0.6,1.816c-0.469-0.116-1.046-0.744-1.168-1.161   c-0.043-0.144-0.179-0.24-0.329-0.212c-0.46,0.063-0.189,1.051-0.102,1.507c-0.354-0.251-1.017-0.415-1.085,0.009   c-0.054,0.35,0.195,1.226,0.087,1.437c-0.101,0.204,0.046,0.438,0.269,0.438c0.556,0,0.33-0.975,0.247-1.476   c0.343,0.175,0.729,0.731,1.04,0.548c0.252-0.147,0.105-0.695,0.048-0.99c0.404,0.36,0.905,0.611,1.389,0.49   c0.122-0.03,0.213-0.133,0.226-0.257c0.087-0.733-0.383-1.006-0.601-1.621c0.256,0.188,0.572,0.589,0.834,0.469   c0.302-0.134,0.158-0.766,0.13-1.104c0.05-0.006,0.127-0.011,0.139-0.013c0.189,0.05,0.369-0.08,0.382-0.271   c0.034-0.516,0.785-0.249,0.669-0.753C30.636,26.526,29.73,26.949,29.541,27.466z"></path><path fill="#111111" d="M34.482,23.853c0.942-0.976,1.998-2.135,3.09-3.412c0.201-0.236,0.398-0.47,0.593-0.702l-1.136-0.971   c-0.825,0.885-1.539,1.667-1.981,2.194c0,0,0.78-0.977,1.88-2.282l-0.229-0.195c-1.247,1.431-2.604,3.079-3.743,4.62   c-4.292-2.438-7.203-6.542-7.976-12.054c-4.228,3.712-7.68,6.167-11.466,9.644c0.239,1.702,0.786,3.333,1.483,4.854l-6.389,4.268   c0,0,11.31,1.72,18.551,8.298c0.587-0.972,1.056-1.83,1.056-1.83s-0.018-0.007-0.042-0.017c0.578,0.12,1.161,0.224,1.76,0.293   c3.578-3.682,7.159-7.359,10.739-11.038C38.618,25.292,36.316,24.745,34.482,23.853z M29.568,35.778   c-7.615-1.271-13.654-7.149-15.132-14.728c3.504-3.155,6.385-5.189,10.084-8.371c1.003,5.142,3.84,8.856,7.935,11.115   c-0.388,0.545-0.725,1.041-0.982,1.46l0.82,0.702c0.443-0.38,0.976-0.88,1.563-1.466l0.001,0.001   c1.574,0.691,3.264,1.212,5.203,1.536C35.897,29.278,32.732,32.528,29.568,35.778z"></path></g></g><g id="SvgjsG1008" featurekey="Q4qmbg-0" transform="matrix(4.175334171876769,0,0,4.175334171876769,112.4906394129258,-19.30044758802089)" fill="#111111"><path d="M11.12 15.08 c0 2.92 -1.94 5.08 -4.84 5.08 c-0.6 0 -1.78 -0.36 -2.24 -0.82 l0 5.3 l-2.96 0 l0 -14.52 l2.96 0 l0 0.7 c0.42 -0.5 1.18 -0.84 2.04 -0.84 c2.9 0 5.04 2.18 5.04 5.1 z M8.14 15.08 c0 -1.58 -1.02 -2.86 -2.26 -2.86 c-0.76 0 -1.5 0.56 -1.9 1.36 c-0.18 0.4 -0.32 0.96 -0.32 1.5 c0 0.56 0.12 1.06 0.32 1.48 c0.42 0.82 1.12 1.36 1.9 1.36 c1.24 0 2.26 -1.28 2.26 -2.84 z M18.867708333333333 10.26 l-0.4 2.22 c-0.74 -0.32 -0.88 -0.26 -1.22 -0.26 c-1.2 0 -1.9 0.64 -1.9 2.22 l0 5.56 l-2.96 0 l0 -9.88 l2.96 0 l0 0.88 c0.38 -0.68 1.42 -1.02 2.08 -1.02 c0.62 0 0.98 0.02 1.44 0.28 z M23.935416666666665 12.42 c-1.22 0 -2.24 1.08 -2.24 2.66 c0 1.56 1.02 2.64 2.24 2.64 c1.24 0 2.26 -1.08 2.26 -2.64 c0 -1.58 -1.02 -2.66 -2.26 -2.66 z M23.935416666666665 9.98 c2.9 0 5.22 2.18 5.22 5.1 s-2.32 5.08 -5.22 5.08 c-2.88 0 -5.2 -2.16 -5.2 -5.08 s2.32 -5.1 5.2 -5.1 z M33.263124999999995 10.12 l0 9.88 l-2.96 0 l0 -9.88 l2.96 0 z M33.34312499999999 7.279999999999999 c0 0.84 -0.68 1.5 -1.58 1.5 c-0.86 0 -1.56 -0.66 -1.56 -1.5 c0 -0.82 0.7 -1.46 1.56 -1.46 c0.9 0 1.58 0.64 1.58 1.46 z M34.91083333333332 15.76 l0 -5.64 l2.96 0 l0 5.64 c0 1.52 0.42 2.16 1.56 2.16 c1.2 0 1.9 -0.64 1.9 -2.16 l0 -5.64 l2.96 0 l0 9.88 l-2.96 0 l0 -0.9 c-0.56 0.7 -1.78 1.06 -2.64 1.06 c-2.78 0 -3.78 -1.32 -3.78 -4.4 z M52.558541666666656 10.26 l-0.4 2.22 c-0.74 -0.32 -0.88 -0.26 -1.22 -0.26 c-1.2 0 -1.9 0.64 -1.9 2.22 l0 5.56 l-2.96 0 l0 -9.88 l2.96 0 l0 0.88 c0.38 -0.68 1.42 -1.02 2.08 -1.02 c0.62 0 0.98 0.02 1.44 0.28 z M57.626249999999985 12.42 c-1.22 0 -2.24 1.08 -2.24 2.66 c0 1.56 1.02 2.64 2.24 2.64 c1.24 0 2.26 -1.08 2.26 -2.64 c0 -1.58 -1.02 -2.66 -2.26 -2.66 z M57.626249999999985 9.98 c2.9 0 5.22 2.18 5.22 5.1 s-2.32 5.08 -5.22 5.08 c-2.88 0 -5.2 -2.16 -5.2 -5.08 s2.32 -5.1 5.2 -5.1 z" fill="#111111"></path></g></svg>